# xmcd
#
# Track frame offsets:
#	150
#	20042
#	34082
#	51352
#	71820
#	89436
#	109656
#	127704
#	145152
#	167588
#	190146
#	209355
#	229069
#	249523
#
# Disc length: 3888 seconds
#
# Revision: 1
# Processed by: cddbd v1.5.2PL0 Copyright (c) Steve Scherf et al.
# Submitted via: audiograbber 1.83.01
#
DISCID=c20f2e0e
DTITLE=Z-Ro - Greatest Hits
DYEAR=2009
DGENRE=Gangsta
TTITLE0=Mo City Don
TTITLE1=Z-Ro
TTITLE2=From The South
TTITLE3=I Hate U
TTITLE4=Top Notch
TTITLE5=The Mule
TTITLE6=These Ni@@az
TTITLE7=That'z Who I Am
TTITLE8=Respect My Mind
TTITLE9=Helo Me Please
TTITLE10=II Many Ni@@az
TTITLE11=One Deep
TTITLE12=M16
TTITLE13=25 Lighterz
EXTD=
EXTT0=
EXTT1=
EXTT2=
EXTT3=
EXTT4=
EXTT5=
EXTT6=
EXTT7=
EXTT8=
EXTT9=
EXTT10=
EXTT11=
EXTT12=
EXTT13=
PLAYORDER=
